<svg width="58" height="58" viewBox="0 0 58 58" fill="none" xmlns="http://www.w3.org/2000/svg">
<rect width="58" height="58" rx="29" fill="#FEF6EF"/>
<g clip-path="url(#clip0_118_223)">
<path d="M40.4239 36.8208C40.0005 37.7991 39.4993 38.6995 38.9186 39.5274C38.127 40.656 37.4788 41.4372 36.9794 41.871C36.2051 42.5831 35.3755 42.9478 34.4871 42.9685C33.8493 42.9685 33.0802 42.7871 32.1849 42.4189C31.2867 42.0525 30.4613 41.871 29.7065 41.871C28.9149 41.871 28.066 42.0525 27.1579 42.4189C26.2484 42.7871 25.5158 42.9789 24.9556 42.9979C24.1037 43.0342 23.2546 42.6592 22.407 41.871C21.8661 41.3992 21.1894 40.5903 20.3788 39.4444C19.5091 38.2208 18.7941 36.8018 18.234 35.1841C17.634 33.4367 17.3333 31.7447 17.3333 30.1065C17.3333 28.2301 17.7388 26.6117 18.5509 25.2554C19.1892 24.1661 20.0383 23.3067 21.1011 22.6759C22.1638 22.045 23.3122 21.7236 24.5488 21.703C25.2254 21.703 26.1128 21.9123 27.2154 22.3236C28.315 22.7364 29.021 22.9457 29.3306 22.9457C29.562 22.9457 30.3463 22.7009 31.6759 22.213C32.9333 21.7606 33.9945 21.5732 34.8639 21.647C37.2196 21.8371 38.9894 22.7658 40.1664 24.4388C38.0596 25.7153 37.0174 27.5033 37.0381 29.797C37.0571 31.5836 37.7053 33.0703 38.979 34.2508C39.5563 34.7987 40.201 35.2221 40.9182 35.5228C40.7627 35.9739 40.5985 36.406 40.4239 36.8208ZM35.0211 15.5605C35.0211 16.9608 34.5096 18.2683 33.4898 19.4784C32.2593 20.9171 30.7708 21.7485 29.1567 21.6173C29.1361 21.4493 29.1242 21.2725 29.1242 21.0867C29.1242 19.7424 29.7094 18.3037 30.7487 17.1274C31.2675 16.5318 31.9274 16.0366 32.7276 15.6415C33.5261 15.2524 34.2814 15.0372 34.9918 15.0003C35.0125 15.1875 35.0211 15.3747 35.0211 15.5604V15.5605Z" fill="#222222"/>
</g>
<defs>
<clipPath id="clip0_118_223">
<rect width="28" height="28" fill="white" transform="translate(15 15)"/>
</clipPath>
</defs>
</svg>
