<svg width="58" height="58" viewBox="0 0 58 58" fill="none" xmlns="http://www.w3.org/2000/svg">
<rect width="58" height="58" rx="29" fill="#FEF6EF"/>
<g clip-path="url(#clip0_118_221)">
<path d="M43 29C43 21.2681 36.7319 15 29 15C21.2681 15 15 21.2681 15 29C15 35.5654 19.5203 41.0747 25.6182 42.5878V33.2784H22.7314V29H25.6182V27.1565C25.6182 22.3914 27.7747 20.1828 32.453 20.1828C33.34 20.1828 34.8705 20.357 35.4966 20.5306V24.4086C35.1662 24.3738 34.5922 24.3565 33.8793 24.3565C31.5838 24.3565 30.6968 25.2262 30.6968 27.4869V29H35.2698L34.4841 33.2784H30.6968V42.8975C37.629 42.0603 43.0006 36.1579 43.0006 29H43Z" fill="#0866FF"/>
<path d="M34.4835 33.2784L35.2692 29H30.6962V27.4869C30.6962 25.2262 31.5833 24.3565 33.8787 24.3565C34.5916 24.3565 35.1656 24.3738 35.496 24.4086V20.5306C34.8699 20.3564 33.3394 20.1828 32.4524 20.1828C27.7742 20.1828 25.6176 22.3914 25.6176 27.1565V29H22.7308V33.2784H25.6176V42.5878C26.7006 42.8566 27.8335 43 28.9994 43C29.5734 43 30.1396 42.9647 30.6957 42.8975V33.2784H34.483H34.4835Z" fill="#FEF6EF"/>
</g>
<defs>
<clipPath id="clip0_118_221">
<rect width="28" height="28" fill="white" transform="translate(15 15)"/>
</clipPath>
</defs>
</svg>
