<svg width="58" height="58" viewBox="0 0 58 58" fill="none" xmlns="http://www.w3.org/2000/svg">
<rect width="58" height="58" rx="29" fill="#FEF6EF"/>
<path d="M28.9997 26.4545V31.8764H36.5343C36.2034 33.62 35.2105 35.0964 33.7215 36.0891L38.2651 39.6146C40.9124 37.171 42.4397 33.5819 42.4397 29.3183C42.4397 28.3256 42.3506 27.371 42.1851 26.4547L28.9997 26.4545Z" fill="#4285F4"/>
<path d="M21.1537 31.6647L20.129 32.4491L16.5016 35.2745C18.8052 39.8436 23.5267 43 28.9994 43C32.7793 43 35.9484 41.7527 38.2648 39.6146L33.7212 36.0891C32.4739 36.9291 30.883 37.4382 28.9994 37.4382C25.3594 37.4382 22.2668 34.9819 21.1594 31.6728L21.1537 31.6647Z" fill="#34A853"/>
<path d="M16.5017 22.7255C15.5472 24.609 15 26.7345 15 28.9999C15 31.2653 15.5472 33.3908 16.5017 35.2744C16.5017 35.287 21.16 31.6598 21.16 31.6598C20.88 30.8198 20.7145 29.929 20.7145 28.9998C20.7145 28.0706 20.88 27.1797 21.16 26.3397L16.5017 22.7255Z" fill="#FBBC05"/>
<path d="M28.9997 20.5745C31.0615 20.5745 32.8942 21.2873 34.3579 22.6618L38.3669 18.6528C35.936 16.3874 32.7797 15 28.9997 15C23.527 15 18.8052 18.1436 16.5016 22.7255L21.1597 26.34C22.2669 23.0309 25.3597 20.5745 28.9997 20.5745Z" fill="#EA4335"/>
</svg>
